HIERARCHY
ROOT hip
{
	OFFSET 0.000000 0.000000 0.000000 
	CHANNELS 6 Xposition Yposition Zposition Xrotation Zrotation Yrotation
	JOINT abdomen
	{
		OFFSET 0.000000 3.402643 0.000000 
		CHANNELS 3 Xrotation Zrotation Yrotation
		JOINT chest
		{
			OFFSET 0.000000 8.438565 -0.680529 
			CHANNELS 3 Xrotation Zrotation Yrotation
			JOINT neck
			{
				OFFSET 0.000000 10.207942 -0.272212 
				CHANNELS 3 Xrotation Zrotation Yrotation
				JOINT head
				{
					OFFSET 0.000000 3.130431 0.000000 
					CHANNELS 3 Xrotation Zrotation Yrotation
					End Site
					{
						OFFSET 0.000000 3.130435 0.000000 
					}
				}
			}
			JOINT lCollar
			{
				OFFSET 3.470700 6.669187 -0.816635 
				CHANNELS 3 Yrotation Zrotation Xrotation
				JOINT lShldr
				{
					OFFSET 3.198488 0.000000 0.000000 
					CHANNELS 3 Zrotation Yrotation Xrotation
					JOINT lForeArm
					{
						OFFSET 10.139888 0.000000 0.000000 
						CHANNELS 3 Yrotation Zrotation Xrotation
						JOINT lHand
						{
							OFFSET 8.370511 0.000000 0.000000 
							CHANNELS 3 Zrotation Yrotation Xrotation
							End Site
							{
								OFFSET 4.083176 0.000000 0.000000 
							}
						}
					}
				}
			}
			JOINT rCollar
			{
				OFFSET -3.470700 6.669187 -0.816635 
				CHANNELS 3 Yrotation Zrotation Xrotation
				JOINT rShldr
				{
					OFFSET -3.198488 0.000000 0.000000 
					CHANNELS 3 Zrotation Yrotation Xrotation
					JOINT rForeArm
					{
						OFFSET -10.139888 0.000000 0.000000 
						CHANNELS 3 Yrotation Zrotation Xrotation
						JOINT rHand
						{
							OFFSET -8.370511 0.000000 0.000000 
							CHANNELS 3 Zrotation Yrotation Xrotation
							End Site
							{
								OFFSET -4.083176 0.000000 0.000000 
							}
						}
					}
				}
			}
		}
	}
	JOINT lThigh
	{
		OFFSET 5.308129 -1.633274 1.361059 
		CHANNELS 3 Xrotation Zrotation Yrotation
		JOINT lShin
		{
			OFFSET -2.041588 -20.007561 0.000000 
			CHANNELS 3 Xrotation Zrotation Yrotation
			JOINT lFoot
			{
				OFFSET 0.000000 -19.190928 -1.224953 
				CHANNELS 3 Xrotation Yrotation Zrotation
				End Site
				{
					OFFSET 0.000000 -2.449906 4.627600 
				}
			}
		}
	}
	JOINT rThigh
	{
		OFFSET -5.308129 -1.633274 1.361059 
		CHANNELS 3 Xrotation Zrotation Yrotation
		JOINT rShin
		{
			OFFSET 2.041588 -20.007561 0.000000 
			CHANNELS 3 Xrotation Zrotation Yrotation
			JOINT rFoot
			{
				OFFSET 0.000000 -19.190928 -1.224953 
				CHANNELS 3 Xrotation Yrotation Zrotation
				End Site
				{
					OFFSET 0.000000 -2.449906 4.627600 
				}
			}
		}
	}
}
MOTION
Frames: 20
Frame Time: 0.016667
-2.849108 49.513741 14.458669 28.962072 4.126781 -13.747079 18.003059 -2.314822 -12.725593 -3.094000 -0.536689 -2.265800 -11.333782 2.840745 4.996670 -3.818447 7.456853 4.579841 1.038662 -2.824574 -0.126778 -85.349846 -17.273388 -3.619205 -66.423996 -23.862616 -12.894441 15.743040 17.752672 4.838651 4.656299 -9.722353 -0.068804 70.493942 -48.944904 -19.646561 54.220421 49.874466 -1.136842 -28.250505 14.975802 -8.165461 -9.170165 -2.450618 13.713372 13.128242 4.352441 -4.474072 -4.991229 -1.224386 -12.144184 -57.602135 8.201682 1.107710 68.933189 5.022264 -8.728556 34.454491 6.669912 7.076799 
-3.276151 50.370247 16.448160 28.643148 3.971004 -15.535649 18.003059 -2.314822 -12.725593 -3.174600 0.868620 -1.982638 -11.333782 2.840745 4.996670 -1.428769 6.844227 5.449460 1.038662 -2.824574 -0.126778 -84.479942 -18.145662 -5.119349 -72.457489 -24.242943 -12.999795 15.743040 17.752672 4.838651 4.656299 -9.722353 -0.068804 68.442734 -53.524288 -20.813358 61.680920 52.869473 -3.690206 -28.250505 14.975802 -8.165461 -4.798670 -1.475423 13.125348 10.465205 3.817403 -1.525648 -4.956851 -1.128838 -12.101726 -57.983948 9.452168 2.859144 60.587315 6.135930 -9.145960 34.476524 6.623419 7.082061 
-3.559748 50.621056 17.442255 28.263704 4.071092 -16.174189 18.003059 -2.314822 -12.725593 -2.913026 1.307922 -1.836351 -11.333782 2.840745 4.996670 -0.539637 6.405498 5.562458 1.038662 -2.824574 -0.126778 -83.968681 -18.499567 -5.915842 -74.316132 -24.562332 -12.663278 15.743040 17.752672 4.838651 4.656299 -9.722353 -0.068804 68.039032 -55.184639 -21.441643 65.801575 53.826775 -5.730624 -28.250505 14.975802 -8.165461 -3.395582 -1.465093 12.578189 10.964183 3.544323 -0.777455 -5.073513 -0.996194 -12.135807 -57.378220 9.637326 3.487030 55.893135 5.970425 -9.184208 34.402580 6.581740 7.160206 
-3.843330 50.871849 18.436312 27.878347 4.179085 -16.823217 18.003059 -2.314822 -12.725593 -2.648613 1.747304 -1.670634 -11.333782 2.840745 4.996670 0.345765 5.957297 5.666063 1.038662 -2.824574 -0.126778 -83.466606 -18.853441 -6.709856 -76.175232 -24.895002 -12.337210 15.743040 17.752672 4.838651 4.656299 -9.722353 -0.068804 67.650276 -56.852512 -22.062059 70.073502 54.690449 -7.923808 -28.250505 14.975802 -8.165461 -2.000840 -1.445338 12.031485 11.444978 3.278424 -0.040948 -5.187527 -0.821904 -12.183664 -56.783386 9.813545 4.138531 51.179539 5.798345 -9.196722 34.335129 6.515576 7.236222 
-4.594694 50.829258 20.447519 27.057301 4.732043 -17.149837 18.003059 -2.314822 -12.725593 -1.680770 2.186686 -1.563598 -11.333782 2.840745 4.996670 0.434887 5.258307 5.580617 1.038662 -2.824574 -0.126778 -82.082848 -19.305227 -7.843612 -77.244659 -26.089117 -11.908823 15.743040 17.752672 4.838651 4.656299 -9.722353 -0.068804 69.699944 -58.004311 -24.614746 76.443329 54.345852 -10.590314 -28.250505 14.975802 -8.165461 -1.382284 -2.078536 10.890470 16.059391 3.582778 -0.106044 -5.141233 -0.867292 -12.274962 -54.645294 9.188704 3.875642 44.793415 2.939260 -7.051609 34.304649 6.643670 7.172018 
-5.346013 50.786648 22.458588 26.225126 5.291675 -17.498352 18.003059 -2.314822 -12.725593 -0.720602 2.626117 -1.446479 -11.333782 2.840745 4.996670 0.526087 4.559113 5.496058 1.038662 -2.824574 -0.126778 -80.684433 -19.736357 -8.990993 -78.314026 -27.294746 -11.500759 15.743040 17.752672 4.838651 4.656299 -9.722353 -0.068804 71.901726 -59.110233 -27.309938 82.701752 53.839710 -13.149526 -28.250505 14.975802 -8.165461 -0.774673 -2.698243 9.734488 20.675224 3.920593 -0.140981 -5.087105 -0.880501 -12.383888 -52.511745 8.571562 3.589738 38.307903 0.349316 -4.647288 34.266369 6.760232 7.117137 
-5.786832 50.398617 23.418531 25.616474 5.617286 -17.213295 18.003059 -2.314822 -12.725593 0.077361 2.703929 -1.671748 -11.333782 2.840745 4.996670 0.076490 3.937812 5.364376 1.038662 -2.824574 -0.126778 -80.165474 -19.299147 -9.229278 -78.040543 -27.843601 -11.002952 15.743040 17.752672 4.838651 4.656299 -9.722353 -0.068804 73.705788 -58.666866 -28.468233 85.330170 52.882305 -14.216603 -28.250505 14.975802 -8.165461 -1.659604 -3.075288 8.560491 25.530910 4.223099 0.068225 -5.218189 -0.807657 -12.168379 -51.385288 7.959112 3.432215 36.895908 -1.070641 -3.244032 34.360115 6.809988 7.009655 
-6.227674 50.010532 24.378557 25.016928 5.952777 -16.939512 18.003059 -2.314822 -12.725593 0.874543 2.801217 -1.886808 -11.333782 2.840745 4.996670 -0.368791 3.325900 5.243663 1.038662 -2.824574 -0.126778 -79.638962 -18.857777 -9.457337 -77.759338 -28.400324 -10.499069 15.743040 17.752672 4.838651 4.656299 -9.722353 -0.068804 75.466576 -58.207405 -29.579699 87.870079 51.894352 -15.188941 -28.250505 14.975802 -8.165461 -2.525379 -3.463853 7.392165 30.391750 4.495539 0.286938 -5.357844 -0.724357 -11.969508 -50.250179 7.343113 3.277974 35.445084 -2.429267 -1.782921 34.448498 6.838751 6.920224 
-6.932591 49.083031 26.331989 23.920067 6.444991 -15.903288 18.003059 -2.314822 -12.725593 2.022834 3.317555 -2.337418 -11.333782 2.840745 4.996670 -1.770204 2.003389 5.218134 1.038662 -2.824574 -0.126778 -79.637436 -15.952042 -9.225372 -75.274277 -29.497887 -9.187464 15.743040 17.752672 4.838651 4.656299 -9.722353 -0.068804 78.316231 -55.398037 -29.865156 89.506470 49.132828 -14.480827 -28.250505 14.975802 -8.165461 -6.853346 -4.627772 5.437427 42.733795 4.504885 0.995334 -5.279234 -0.744099 -12.175889 -47.977116 6.094026 2.356593 34.944435 -2.505250 -0.160898 34.470463 7.020805 6.920381 
-7.637472 48.155567 28.285345 22.834326 6.958391 -14.876804 18.003059 -2.314822 -12.725593 3.163337 3.852928 -2.769888 -11.333782 2.840745 4.996670 -3.179047 0.690479 5.225052 1.038662 -2.824574 -0.126778 -79.619614 -13.055763 -8.996443 -72.726219 -30.549110 -7.801751 15.743040 17.752672 4.838651 4.656299 -9.722353 -0.068804 80.975929 -52.578255 -29.913166 91.112930 46.392284 -13.693856 -28.250505 14.975802 -8.165461 -11.129356 -5.936055 3.573924 55.063782 4.356858 1.675008 -5.199395 -0.753426 -12.367017 -45.665710 4.881362 1.407250 34.436638 -2.550108 1.460903 34.509914 7.212233 6.910060 
-7.970306 47.706009 29.283228 22.391033 6.954925 -14.385264 18.003059 -2.314822 -12.725593 3.603133 4.203976 -2.800482 -11.333782 2.840745 4.996670 -3.885780 -0.097257 5.185539 1.038662 -2.824574 -0.126778 -80.503937 -10.857035 -8.357531 -70.340454 -30.579340 -6.652925 15.743040 17.752672 4.838651 4.656299 -9.722353 -0.068804 81.793427 -50.474552 -29.195189 91.076523 44.660641 -12.749633 -28.250505 14.975802 -8.165461 -13.858542 -6.627350 2.656352 61.356838 3.876570 2.269851 -5.274662 -0.788010 -12.268761 -44.255615 4.345932 0.998694 35.326942 -1.968302 2.262248 34.428036 7.159484 6.997149 
-8.303147 47.256466 30.281128 21.937778 6.950869 -13.892525 18.003059 -2.314822 -12.725593 4.052025 4.545212 -2.840917 -11.333782 2.840745 4.996670 -4.581826 -0.885075 5.156840 1.038662 -2.824574 -0.126778 -81.360649 -8.657336 -7.759396 -67.954102 -30.567661 -5.505753 15.743040 17.752672 4.838651 4.656299 -9.722353 -0.068804 82.629364 -48.373386 -28.460840 91.081551 42.935646 -11.823823 -28.250505 14.975802 -8.165461 -16.594515 -7.360828 1.771386 67.681404 3.320304 2.867124 -5.383035 -0.872876 -12.183057 -42.826252 3.817299 0.609805 36.217937 -1.368925 3.078296 34.354141 7.072610 7.110616 
-8.626753 46.887352 31.281057 21.485268 6.948749 -13.311378 18.003059 -2.314822 -12.725593 4.397774 4.808437 -2.870896 -11.333782 2.840745 4.996670 -5.289309 -1.585378 5.148292 1.038662 -2.824574 -0.126778 -82.593231 -6.377217 -6.942883 -64.765717 -30.378096 -4.113926 15.743040 17.752672 4.838651 4.656299 -9.722353 -0.068804 82.683990 -45.747692 -26.753756 90.438576 40.984707 -10.673629 -28.250505 14.975802 -8.165461 -19.955994 -7.938489 0.488543 73.369888 2.128825 3.253558 -5.296625 -0.847187 -12.189055 -41.381092 3.368268 -0.220626 37.674961 -2.111440 3.056700 34.482208 7.000564 7.170394 
-8.950399 46.518253 32.281147 21.030367 6.955357 -12.731392 18.003059 -2.314822 -12.725593 4.752141 5.071603 -2.911471 -11.333782 2.840745 4.996670 -5.986342 -2.275939 5.150558 1.038662 -2.824574 -0.126778 -83.794334 -4.091701 -6.181579 -61.584190 -30.141001 -2.730354 15.743040 17.752672 4.838651 4.656299 -9.722353 -0.068804 82.848396 -43.123928 -25.119604 89.862907 39.032352 -9.571521 -28.250505 14.975802 -8.165461 -23.312021 -8.600698 -0.795398 79.054581 0.879323 3.514640 -5.213152 -0.792043 -12.214472 -39.914459 2.938585 -1.060598 39.122501 -2.862739 3.010705 34.578529 6.930750 7.241616 
-9.616852 46.229588 34.436615 20.411650 6.467469 -11.616995 18.003059 -2.314822 -12.725593 4.931450 5.600158 -2.502166 -11.333782 2.840745 4.996670 -6.175351 -3.065396 4.801623 1.038662 -2.824574 -0.126778 -86.625572 0.732188 -5.268741 -55.269524 -28.430944 -1.249707 15.743040 17.752672 4.838651 4.656299 -9.722353 -0.068804 82.064247 -37.012520 -20.636477 87.832268 34.815205 -6.956484 -28.250505 14.975802 -8.165461 -28.944649 -7.470618 -2.811954 86.027336 -0.771183 1.150091 -5.112253 -0.757314 -12.173607 -36.820709 2.821806 -2.351188 40.353695 -3.116714 2.833294 34.466438 6.986159 7.160453 
-10.283247 45.940983 36.591900 19.780464 5.992507 -10.496970 18.003059 -2.314822 -12.725593 5.119751 6.119035 -2.081413 -11.333782 2.840745 4.996670 -6.354745 -3.855547 4.452982 1.038662 -2.824574 -0.126778 -89.393654 5.585971 -4.598573 -49.111168 -26.589184 -0.017152 15.743040 17.752672 4.838651 4.656299 -9.722353 -0.068804 81.889244 -30.876328 -16.555504 86.118538 30.545549 -4.636053 -28.250505 14.975802 -8.165461 -34.593681 -6.522088 -4.925527 93.068619 -2.128670 -1.384712 -5.017480 -0.734399 -12.159319 -33.737892 2.773008 -3.627470 41.565548 -3.370969 2.639891 34.376106 7.068854 7.098405 
-10.605410 45.988308 37.674450 19.352802 5.900713 -10.269570 18.003059 -2.314822 -12.725593 5.119839 5.945289 -1.481849 -11.333782 2.840745 4.996670 -5.828952 -4.033133 4.003466 1.038662 -2.824574 -0.126778 -90.265434 8.054808 -4.665901 -47.381382 -25.794125 -0.394268 15.743040 17.752672 4.838651 4.656299 -9.722353 -0.068804 81.405693 -27.725752 -14.210383 85.879417 28.833548 -4.200531 -28.250505 14.975802 -8.165461 -37.411339 -5.644589 -5.007186 94.319138 -2.334585 -3.001880 -5.128205 -0.585084 -12.185704 -31.468723 2.753288 -4.348304 41.024323 -3.664412 2.550970 34.365196 7.071498 7.100437 
-10.927641 46.035679 38.757225 18.923672 5.818483 -10.032473 18.003059 -2.314822 -12.725593 5.116248 5.770803 -0.883289 -11.333782 2.840745 4.996670 -5.298945 -4.210752 3.534506 1.038662 -2.824574 -0.126778 -91.148506 10.513318 -4.769941 -45.666405 -25.003922 -0.802097 15.743040 17.752672 4.838651 4.656299 -9.722353 -0.068804 81.078323 -24.562510 -11.956931 85.662582 27.119455 -3.773001 -28.250505 14.975802 -8.165461 -40.231789 -4.774930 -5.154291 95.598328 -2.529503 -4.668942 -5.237869 -0.427083 -12.218501 -29.218042 2.753344 -5.079514 40.460209 -3.966070 2.461167 34.343418 7.076484 7.102210 
-11.602095 46.371662 41.061062 18.640236 5.839961 -9.345573 18.003059 -2.314822 -12.725593 4.587749 4.716566 0.568503 -11.333782 2.840745 4.996670 -3.342786 -3.367000 2.044374 1.038662 -2.824574 -0.126778 -90.784210 14.807983 -5.737279 -44.698734 -24.721985 -1.349927 15.743040 17.752672 4.838651 4.656299 -9.722353 -0.068804 80.610382 -19.754072 -7.438086 87.281723 25.081554 -4.701088 -28.250505 14.975802 -8.165461 -45.486645 -4.198905 -5.849175 93.676239 -3.271815 -7.097973 -5.148979 -0.745075 -12.138289 -24.459213 2.440901 -6.310066 38.105896 -4.084257 1.598057 34.411835 7.142505 7.007329 
-12.276472 46.707642 43.364681 18.363983 5.879952 -8.658658 18.003059 -2.314822 -12.725593 4.035668 3.679368 2.016344 -11.333782 2.840745 4.996670 -1.421247 -2.460813 0.576479 1.038662 -2.824574 -0.126778 -90.492874 19.115850 -6.703091 -43.740997 -24.452213 -1.900360 15.743040 17.752672 4.838651 4.656299 -9.722353 -0.068804 80.550499 -14.920618 -3.067045 88.837280 23.010916 -5.554980 -28.250505 14.975802 -8.165461 -50.733120 -3.699621 -6.592910 91.786102 -4.091763 -9.497763 -5.048570 -1.053521 -12.074149 -19.716673 2.226373 -7.574923 35.733330 -4.240328 0.757096 34.505604 7.191160 6.908733 
